<svg width="11" height="12" viewBox="0 0 11 12" fill="none" xmlns="http://www.w3.org/2000/svg">
<path d="M1.71094 11.4648C1.35547 11.2005 1.0957 10.877 0.931641 10.4941C0.758464 10.1022 0.735677 9.71484 0.863281 9.33203C0.88151 9.04948 0.94987 8.7806 1.06836 8.52539C1.19596 8.26107 1.34635 8.01042 1.51953 7.77344C1.70182 7.53646 1.89779 7.31315 2.10742 7.10352C2.31706 6.89388 2.51302 6.69792 2.69531 6.51562C2.73177 6.40625 2.79557 6.31055 2.88672 6.22852C2.97786 6.14648 3.07357 6.06901 3.17383 5.99609C3.2832 5.91406 3.38802 5.82747 3.48828 5.73633C3.59766 5.64518 3.68424 5.54036 3.74805 5.42188C3.71159 5.29427 3.65234 5.16667 3.57031 5.03906C3.48828 4.91146 3.39714 4.78385 3.29688 4.65625C3.19661 4.52865 3.0918 4.40104 2.98242 4.27344C2.87305 4.14583 2.77279 4.01367 2.68164 3.87695C2.67253 3.83138 2.63607 3.81771 2.57227 3.83594C2.51758 3.85417 2.47656 3.84961 2.44922 3.82227C2.46745 3.67643 2.43555 3.52148 2.35352 3.35742C2.2806 3.18424 2.18034 3.03841 2.05273 2.91992C2.09831 2.81055 2.13932 2.66927 2.17578 2.49609C2.22135 2.32292 2.21224 2.13607 2.14844 1.93555C2.13932 1.8444 2.14844 1.75781 2.17578 1.67578C2.21224 1.59375 2.2487 1.51628 2.28516 1.44336C2.32161 1.37044 2.34896 1.30208 2.36719 1.23828C2.38542 1.16536 2.38086 1.09245 2.35352 1.01953C2.49023 1.0013 2.61328 1.01042 2.72266 1.04688C2.84115 1.07422 2.94596 1.11068 3.03711 1.15625C3.13737 1.19271 3.22852 1.22461 3.31055 1.25195C3.40169 1.2793 3.48828 1.27474 3.57031 1.23828C3.55208 1.29297 3.54753 1.33398 3.55664 1.36133C3.57487 1.37956 3.5931 1.39779 3.61133 1.41602C3.63867 1.42513 3.66146 1.43424 3.67969 1.44336C3.70703 1.45247 3.7207 1.47526 3.7207 1.51172C3.89388 1.56641 4.08073 1.6849 4.28125 1.86719C4.49089 2.04948 4.69141 2.25 4.88281 2.46875C5.07422 2.6875 5.2474 2.90625 5.40234 3.125C5.55729 3.33464 5.67122 3.4987 5.74414 3.61719C6.00846 3.45312 6.29102 3.25716 6.5918 3.0293C6.90169 2.80143 7.21615 2.56901 7.53516 2.33203C7.86328 2.09505 8.19141 1.87174 8.51953 1.66211C8.85677 1.44336 9.1849 1.27018 9.50391 1.14258C9.6862 1.22461 9.82747 1.32943 9.92773 1.45703C10.0371 1.58464 10.1237 1.72135 10.1875 1.86719C10.2604 2.00391 10.3242 2.14518 10.3789 2.29102C10.4427 2.42773 10.5247 2.55078 10.625 2.66016C10.5339 2.84245 10.4382 2.9974 10.3379 3.125C10.2376 3.24349 10.1647 3.38932 10.1191 3.5625C9.89128 3.65365 9.61784 3.79948 9.29883 4C9.02539 4.17318 8.67904 4.41016 8.25977 4.71094C7.84049 5.01172 7.34375 5.4082 6.76953 5.90039C6.90625 6.05534 7.01562 6.20117 7.09766 6.33789C7.1888 6.47461 7.26172 6.5931 7.31641 6.69336C7.38021 6.81185 7.43034 6.92122 7.4668 7.02148C7.56706 7.0944 7.64909 7.18099 7.71289 7.28125C7.77669 7.38151 7.83594 7.48633 7.89062 7.5957C7.95443 7.69596 8.02279 7.79167 8.0957 7.88281C8.16862 7.97396 8.26432 8.04688 8.38281 8.10156C8.41927 8.26562 8.46484 8.42057 8.51953 8.56641C8.57422 8.70312 8.62435 8.83984 8.66992 8.97656C8.72461 9.11328 8.76562 9.25 8.79297 9.38672C8.82943 9.51432 8.8431 9.64648 8.83398 9.7832C8.76107 10.0293 8.65169 10.2344 8.50586 10.3984C8.36003 10.5625 8.25521 10.7311 8.19141 10.9043C8.09115 10.9316 7.99089 10.9635 7.89062 11C7.79948 11.0273 7.72201 11.0729 7.6582 11.1367L6.72852 10.4805C6.56445 9.93359 6.32747 9.40951 6.01758 8.9082C5.70768 8.4069 5.4069 7.97396 5.11523 7.60938C4.67773 7.94661 4.25846 8.32031 3.85742 8.73047C3.45638 9.14062 3.0918 9.57812 2.76367 10.043C2.74544 10.2708 2.7181 10.4622 2.68164 10.6172C2.64518 10.763 2.58594 10.8861 2.50391 10.9863C2.42188 11.0866 2.31706 11.1732 2.18945 11.2461C2.06185 11.319 1.90234 11.3919 1.71094 11.4648Z" fill="white"/>
</svg>
